<?xml version="1.0"?>
<svg xmlns="http://www.w3.org/2000/svg" xmlns:xlink="http://www.w3.org/1999/xlink" xmlns:svgjs="http://svgjs.com/svgjs" version="1.1" width="512" height="512" x="0" y="0" viewBox="0 0 512 512" style="enable-background:new 0 0 512 512" xml:space="preserve" class=""><g><g xmlns="http://www.w3.org/2000/svg"><path d="m431.075 256.114c0 100.009-75.914 177.981-175.924 177.981-64.459 0-118.307-29.832-150.396-80.554-2.139-3.381-7.654-7.699-9.57-11.227-13.938-25.657-21.856-55.061-21.856-86.314 0-100.009 81.074-181.083 181.083-181.083 3.042 0 6.067.075 9.073.223 2.552.126 9.281 2.66 11.804 2.89 92.188 8.423 155.786 83.701 155.786 178.084z" fill="#00000000" data-original="#fee97d" style="" class=""/><path d="m435.492 256c0 100.013-81.072 181.085-181.085 181.085-41.795 0-80.295-14.164-110.942-37.963-20.365-15.806-37.266-35.863-49.369-58.845 21.689 11.218 46.314 17.548 72.432 17.548 87.243 0 157.973-70.72 157.973-157.963 0-50.703-23.889-95.823-61.015-124.718 29.562 1.453 57.253 10.003 81.42 23.968 54.146 31.304 90.586 89.841 90.586 156.888z" fill="#00000000" data-original="#fee45a" style="" class=""/><path d="m435.497 256c0 100.013-81.072 181.085-181.085 181.085-68.839 0-128.709-38.411-159.336-94.977 25.879 18.553 57.601 29.462 91.881 29.462 87.243 0 157.973-70.72 157.973-157.963 0-59.671-33.086-111.619-81.908-138.484 96.012 4.49 172.475 83.75 172.475 180.877z" fill="#8ac9fe" data-original="#8ac9fe" style="" class=""/><path d="m435.492 256c0 100.013-81.072 181.085-181.085 181.085-47.628 0-90.965-18.394-123.294-48.464 29.771 21.49 66.34 34.151 105.856 34.151 100.013 0 181.085-81.072 181.085-181.085 0-52.356-22.216-99.525-57.741-132.581 45.538 32.886 75.179 86.426 75.179 146.894z" fill="#60b7ff" data-original="#60b7ff" style="" class=""/><g><g><path d="m265.287 43.335c-4.123 0-7.465-3.342-7.465-7.465v-28.405c0-4.123 3.342-7.465 7.465-7.465s7.465 3.342 7.465 7.465v28.405c0 4.123-3.342 7.465-7.465 7.465z" fill="#00000000" data-original="#fee97d" style="" class=""/></g><g><path d="m265.287 512c-4.123 0-7.465-3.342-7.465-7.465v-28.405c0-4.123 3.342-7.465 7.465-7.465s7.465 3.342 7.465 7.465v28.405c0 4.123-3.342 7.465-7.465 7.465z" fill="#00000000" data-original="#fee97d" style="" class=""/></g></g><g><g><path d="m155.228 72.828c-2.58 0-5.089-1.339-6.472-3.734l-14.202-24.599c-2.062-3.571-.838-8.136 2.732-10.198 3.57-2.063 8.135-.839 10.198 2.732l14.202 24.599c2.062 3.571.838 8.136-2.732 10.198-1.176.679-2.459 1.002-3.726 1.002z" fill="#00000000" data-original="#fee97d" style="" class=""/></g></g><g><g><path d="m74.641 153.401c-1.267 0-2.55-.323-3.726-1.002l-24.599-14.202c-3.571-2.061-4.794-6.627-2.732-10.198s6.626-4.795 10.198-2.732l24.598 14.203c3.571 2.061 4.794 6.627 2.732 10.198-1.382 2.394-3.891 3.733-6.471 3.733z" fill="#00000000" data-original="#fee97d" style="" class=""/></g></g><g><g><path d="m45.156 263.465h-28.405c-4.123 0-7.465-3.342-7.465-7.465s3.342-7.465 7.465-7.465h28.405c4.123 0 7.465 3.342 7.465 7.465s-3.342 7.465-7.465 7.465z" fill="#00000000" data-original="#fee97d" style="" class=""/></g></g><g><g><path d="m50.056 387.734c-2.58 0-5.089-1.339-6.472-3.734-2.062-3.571-.838-8.136 2.732-10.198l24.599-14.202c3.571-2.062 8.136-.839 10.198 2.732s.838 8.136-2.732 10.198l-24.599 14.202c-1.176.679-2.459 1.002-3.726 1.002z" fill="#00000000" data-original="#fee97d" style="" class=""/></g></g><g><g><path d="m141.012 478.704c-1.267 0-2.55-.323-3.726-1.002-3.571-2.061-4.794-6.627-2.732-10.198l14.202-24.599c2.061-3.571 6.627-4.795 10.198-2.732 3.571 2.061 4.794 6.627 2.732 10.198l-14.202 24.599c-1.383 2.395-3.892 3.734-6.472 3.734z" fill="#00000000" data-original="#fee97d" style="" class=""/></g></g><path d="m466.562 369.642c-3.142-.191-6.206-.001-9.155.524-2.57.458-5.135-.846-6.276-3.194-8.989-18.503-27.96-31.259-49.913-31.259s-40.925 12.756-49.913 31.259c-1.141 2.348-3.706 3.652-6.276 3.194-2.949-.525-6.014-.715-9.155-.524-19.52 1.187-35.201 17.087-36.109 36.622-1.028 22.118 16.6 40.374 38.492 40.374 9.501 0 18.194-3.443 24.911-9.144 1.99-1.689 4.873-1.798 7.036-.336 8.853 5.984 19.525 9.48 31.015 9.48s22.162-3.496 31.015-9.48c2.163-1.462 5.046-1.353 7.036.336 6.717 5.701 15.41 9.144 24.911 9.144 21.892 0 39.52-18.256 38.492-40.374-.911-19.535-16.591-35.435-36.111-36.622z" fill="#fdf6ec" data-original="#fdf6ec" style="" class=""/><path d="m478.84 443.754c5.027-6.838 7.844-15.388 7.416-24.615-.906-19.539-16.593-35.435-36.111-36.619-3.145-.199-6.211-.01-9.157.518-2.568.458-5.136-.846-6.271-3.195-8.988-18.504-27.96-31.254-49.917-31.254-9.137 0-17.767 2.21-25.362 6.131 10.153-11.656 25.103-19.011 41.775-19.011 21.957 0 40.929 12.76 49.917 31.264 1.145 2.349 3.703 3.653 6.281 3.195 2.946-.528 6.012-.717 9.147-.528 19.529 1.184 35.206 17.09 36.111 36.629.786 16.871-9.287 31.493-23.829 37.485z" fill="#fef1da" data-original="#fef1da" style="" class=""/><path d="m333.192 205.244c-2.659-.162-5.253-.001-7.748.444-2.175.387-4.346-.716-5.312-2.703-7.607-15.66-23.663-26.455-42.243-26.455-18.579 0-34.635 10.796-42.243 26.455-.965 1.987-3.137 3.091-5.312 2.703-2.496-.444-5.089-.605-7.748-.444-16.52 1.004-29.791 14.461-30.56 30.994-.87 18.719 14.049 34.169 32.576 34.169 8.041 0 15.398-2.914 21.083-7.739 1.684-1.43 4.124-1.522 5.955-.285 7.492 5.064 16.524 8.023 26.249 8.023 9.724 0 18.756-2.959 26.249-8.023 1.831-1.237 4.27-1.145 5.955.285 5.685 4.825 13.042 7.739 21.083 7.739 18.528 0 33.447-15.45 32.576-34.169-.769-16.533-14.04-29.989-30.56-30.994z" fill="#fdf6ec" data-original="#fdf6ec" style="" class=""/><path d="m345.174 267.267c2.05-4.529 3.095-9.615 2.847-14.97-.776-16.533-14.044-29.99-30.567-30.995-2.658-.169-5.246 0-7.744.438-2.18.388-4.35-.717-5.315-2.697-7.605-15.667-23.66-26.457-42.243-26.457-9.058 0-17.508 2.568-24.675 7.017 8.152-13.816 23.211-23.072 40.411-23.072 18.583 0 34.638 10.79 42.243 26.457.965 1.981 3.135 3.086 5.315 2.697 2.498-.438 5.086-.607 7.744-.438 16.523 1.005 29.791 14.462 30.557 30.995.637 13.656-7.126 25.571-18.573 31.025z" fill="#fef1da" data-original="#fef1da" style="" class=""/></g></g></svg>
